<svg width="50" height="50" viewBox="0 0 50 50" fill="none" xmlns="http://www.w3.org/2000/svg">
<path d="M36.7728 23.6373L41.1333 19.2759L30.7181 8.85858L26.3575 13.22L14.8591 1.74703C12.6927 -0.419772 9.16542 -0.419772 6.99905 1.74703L1.72199 7.02513C-0.444384 9.19193 -0.444384 12.7199 1.72199 14.8867L13.1927 26.3597L0 39.5827V50H10.4153L23.6357 36.777L35.1063 48.2499C37.7449 50.8889 41.2999 49.9167 42.9664 48.2499L48.2435 42.9718C50.4098 40.805 50.4098 37.277 48.2435 35.1102L36.7728 23.6373ZM17.1643 22.415L5.6659 10.942L10.9152 5.66394L14.4425 9.19193L11.1652 12.4977L15.0813 16.4146L18.3864 13.1088L22.4136 17.1369L17.1643 22.415ZM39.0503 44.333L27.5796 32.8601L32.8567 27.582L36.8839 31.61L33.5788 34.9157L37.4949 38.8326L40.8 35.5269L44.3273 39.0549L39.0503 44.333ZM49.1878 11.2198C49.4452 10.9628 49.6495 10.6576 49.7889 10.3215C49.9283 9.98545 50 9.6252 50 9.26138C50 8.89756 49.9283 8.5373 49.7889 8.20125C49.6495 7.86519 49.4452 7.55992 49.1878 7.30293L42.6887 0.802525C41.3833 -0.503111 39.578 -0.00308034 38.7725 0.802525L33.6899 5.88617L44.1051 16.3035L49.1878 11.2198Z" fill="#F8D9AE"/>
</svg>
