<svg width="50" height="50" viewBox="0 0 50 50" fill="none" xmlns="http://www.w3.org/2000/svg">
<path d="M44.4444 0H5.55556C2.5 0 0 2.5 0 5.55556V44.4444C0 47.5 2.5 50 5.55556 50H44.4444C47.5 50 50 47.5 50 44.4444V5.55556C50 2.5 47.5 0 44.4444 0ZM22.2222 13.8889H16.6667V19.4444C16.6667 22.5 14.1667 25 11.1111 25C14.1667 25 16.6667 27.5 16.6667 30.5556V36.1111H22.2222V41.6667H16.6667C13.6111 41.6667 11.1111 39.1667 11.1111 36.1111V33.3333C11.1111 30.2778 8.61111 27.7778 5.55556 27.7778V22.2222C8.61111 22.2222 11.1111 19.7222 11.1111 16.6667V13.8889C11.1111 10.8333 13.6111 8.33333 16.6667 8.33333H22.2222V13.8889ZM44.4444 27.7778C41.3889 27.7778 38.8889 30.2778 38.8889 33.3333V36.1111C38.8889 39.1667 36.3889 41.6667 33.3333 41.6667H27.7778V36.1111H33.3333V30.5556C33.3333 27.5 35.8333 25 38.8889 25C35.8333 25 33.3333 22.5 33.3333 19.4444V13.8889H27.7778V8.33333H33.3333C36.3889 8.33333 38.8889 10.8333 38.8889 13.8889V16.6667C38.8889 19.7222 41.3889 22.2222 44.4444 22.2222V27.7778Z" fill="#E06C62"/>
</svg>
