<svg width="15" height="15" viewBox="0 0 15 15" fill="none" xmlns="http://www.w3.org/2000/svg">
<path d="M7.5 0C3.28125 0 0 3.3871 0 7.74194C0 12.8226 4.45312 15 5.15625 15C5.625 15 5.625 14.7581 5.625 14.5161V13.3065C3.98438 13.7903 3.28125 12.8226 3.04688 12.0968C3.04688 12.0968 3.04688 11.8548 2.57812 11.371C2.34375 11.129 1.40625 10.6452 2.34375 10.6452C3.04688 10.6452 3.51562 11.6129 3.51562 11.6129C4.21875 12.5806 5.15625 12.3387 5.625 12.0968C5.625 11.6129 6.09375 11.129 6.09375 11.129C4.21875 10.8871 2.8125 10.1613 2.8125 7.5C2.8125 6.53226 3.04688 5.80645 3.51562 5.32258C3.51562 5.32258 3.04688 4.35484 3.51562 3.14516C3.51562 3.14516 4.6875 3.14516 5.625 4.1129C6.32812 3.62903 8.67188 3.62903 9.375 4.1129C10.3125 3.14516 11.4844 3.14516 11.4844 3.14516C11.9531 4.83871 11.4844 5.32258 11.4844 5.32258C11.9531 5.80645 12.1875 6.53226 12.1875 7.5C12.1875 10.1613 10.5469 10.8871 8.90625 11.129C9.14062 11.371 9.375 11.8548 9.375 12.5806V14.5161C9.375 14.7581 9.375 15 9.84375 15C10.5469 15 15 12.8226 15 7.74194C15 3.3871 11.7188 0 7.5 0Z" fill="black"/>
</svg>
