<svg width="15" height="15" viewBox="0 0 15 15" fill="none" xmlns="http://www.w3.org/2000/svg">
<path d="M7.5 0C3.35781 0 0 3.35781 0 7.5C0 11.6422 3.35781 15 7.5 15C11.6422 15 15 11.6422 15 7.5C15 3.35781 11.6422 0 7.5 0ZM5.66406 10.6086H4.14531V5.72109H5.66406V10.6086ZM4.89531 5.12109C4.41562 5.12109 4.10547 4.78125 4.10547 4.36094C4.10547 3.93203 4.425 3.60234 4.91484 3.60234C5.40469 3.60234 5.70469 3.93203 5.71406 4.36094C5.71406 4.78125 5.40469 5.12109 4.89531 5.12109ZM11.2109 10.6086H9.69219V7.9C9.69219 7.26953 9.47187 6.84141 8.92266 6.84141C8.50312 6.84141 8.25391 7.13125 8.14375 7.41016C8.10312 7.50937 8.09297 7.65 8.09297 7.78984V10.6078H6.57344V7.27969C6.57344 6.66953 6.55391 6.15937 6.53359 5.72031H7.85312L7.92266 6.39922H7.95312C8.15312 6.08047 8.64297 5.61016 9.4625 5.61016C10.4617 5.61016 11.2109 6.27969 11.2109 7.71875V10.6086V10.6086Z" fill="black"/>
</svg>
