<svg width="14" height="12" viewBox="0 0 14 12" fill="none" xmlns="http://www.w3.org/2000/svg">
<path d="M7.00014 0.999146L7.00059 0.999593L13.0006 6.99959L13.0008 7.00004L13.0006 7.00049L13.0001 7.00067L12.9997 7.00049L7.35373 1.35352L7.00014 0.99987L6.64656 1.35352L1.00059 7.00049L1.00014 7.00067L0.999697 7.00049L0.999512 7.00004L0.999697 6.99959L6.9997 0.999593L6.64614 0.646039L7.00014 0.999146Z" fill="white" stroke="white"/>
<path d="M7.00014 4.99915L7.00059 4.99959L13.0006 10.9996L13.0008 11L13.0006 11.0005L13.0001 11.0007L12.9997 11.0005L7.35373 5.35352L7.00014 4.99987L6.64656 5.35352L1.00059 11.0005L1.00014 11.0007L0.999697 11.0005L0.999512 11L0.999697 10.9996L6.9997 4.99959L6.64615 4.64605L7.00014 4.99915Z" fill="white" stroke="white"/>
</svg>
